<svg xmlns="http://www.w3.org/2000/svg" xmlns:xlink="http://www.w3.org/1999/xlink" width="77" height="411" viewBox="0 0 77 411">
  <defs>
    <clipPath id="clip-path">
      <rect width="77" height="411" fill="none"/>
    </clipPath>
  </defs>
  <g id="Repeat_Grid_41" data-name="Repeat Grid 41" clip-path="url(#clip-path)">
    <g id="Group_1455" data-name="Group 1455" transform="translate(-1625 -1678)">
      <circle id="Ellipse_33" data-name="Ellipse 33" cx="6" cy="6" r="6" transform="translate(1625 1678)" fill="#edbd1b"/>
      <circle id="Ellipse_35" data-name="Ellipse 35" cx="6" cy="6" r="6" transform="translate(1625 1705)" fill="#edbd1b"/>
      <circle id="Ellipse_34" data-name="Ellipse 34" cx="6" cy="6" r="6" transform="translate(1651 1678)" fill="#edbd1b"/>
      <circle id="Ellipse_36" data-name="Ellipse 36" cx="6" cy="6" r="6" transform="translate(1651 1705)" fill="#edbd1b"/>
    </g>
    <g id="Group_1455-2" data-name="Group 1455" transform="translate(-1572 -1678)">
      <circle id="Ellipse_33-2" data-name="Ellipse 33" cx="6" cy="6" r="6" transform="translate(1625 1678)" fill="#edbd1b"/>
      <circle id="Ellipse_35-2" data-name="Ellipse 35" cx="6" cy="6" r="6" transform="translate(1625 1705)" fill="#edbd1b"/>
      <circle id="Ellipse_34-2" data-name="Ellipse 34" cx="6" cy="6" r="6" transform="translate(1651 1678)" fill="#edbd1b"/>
      <circle id="Ellipse_36-2" data-name="Ellipse 36" cx="6" cy="6" r="6" transform="translate(1651 1705)" fill="#edbd1b"/>
    </g>
    <g id="Group_1455-3" data-name="Group 1455" transform="translate(-1625 -1619)">
      <circle id="Ellipse_33-3" data-name="Ellipse 33" cx="6" cy="6" r="6" transform="translate(1625 1678)" fill="#edbd1b"/>
      <circle id="Ellipse_35-3" data-name="Ellipse 35" cx="6" cy="6" r="6" transform="translate(1625 1705)" fill="#edbd1b"/>
      <circle id="Ellipse_34-3" data-name="Ellipse 34" cx="6" cy="6" r="6" transform="translate(1651 1678)" fill="#edbd1b"/>
      <circle id="Ellipse_36-3" data-name="Ellipse 36" cx="6" cy="6" r="6" transform="translate(1651 1705)" fill="#edbd1b"/>
    </g>
    <g id="Group_1455-4" data-name="Group 1455" transform="translate(-1572 -1619)">
      <circle id="Ellipse_33-4" data-name="Ellipse 33" cx="6" cy="6" r="6" transform="translate(1625 1678)" fill="#edbd1b"/>
      <circle id="Ellipse_35-4" data-name="Ellipse 35" cx="6" cy="6" r="6" transform="translate(1625 1705)" fill="#edbd1b"/>
      <circle id="Ellipse_34-4" data-name="Ellipse 34" cx="6" cy="6" r="6" transform="translate(1651 1678)" fill="#edbd1b"/>
      <circle id="Ellipse_36-4" data-name="Ellipse 36" cx="6" cy="6" r="6" transform="translate(1651 1705)" fill="#edbd1b"/>
    </g>
    <g id="Group_1455-5" data-name="Group 1455" transform="translate(-1625 -1560)">
      <circle id="Ellipse_33-5" data-name="Ellipse 33" cx="6" cy="6" r="6" transform="translate(1625 1678)" fill="#edbd1b"/>
      <circle id="Ellipse_35-5" data-name="Ellipse 35" cx="6" cy="6" r="6" transform="translate(1625 1705)" fill="#edbd1b"/>
      <circle id="Ellipse_34-5" data-name="Ellipse 34" cx="6" cy="6" r="6" transform="translate(1651 1678)" fill="#edbd1b"/>
      <circle id="Ellipse_36-5" data-name="Ellipse 36" cx="6" cy="6" r="6" transform="translate(1651 1705)" fill="#edbd1b"/>
    </g>
    <g id="Group_1455-6" data-name="Group 1455" transform="translate(-1572 -1560)">
      <circle id="Ellipse_33-6" data-name="Ellipse 33" cx="6" cy="6" r="6" transform="translate(1625 1678)" fill="#edbd1b"/>
      <circle id="Ellipse_35-6" data-name="Ellipse 35" cx="6" cy="6" r="6" transform="translate(1625 1705)" fill="#edbd1b"/>
      <circle id="Ellipse_34-6" data-name="Ellipse 34" cx="6" cy="6" r="6" transform="translate(1651 1678)" fill="#edbd1b"/>
      <circle id="Ellipse_36-6" data-name="Ellipse 36" cx="6" cy="6" r="6" transform="translate(1651 1705)" fill="#edbd1b"/>
    </g>
    <g id="Group_1455-7" data-name="Group 1455" transform="translate(-1625 -1501)">
      <circle id="Ellipse_33-7" data-name="Ellipse 33" cx="6" cy="6" r="6" transform="translate(1625 1678)" fill="#edbd1b"/>
      <circle id="Ellipse_35-7" data-name="Ellipse 35" cx="6" cy="6" r="6" transform="translate(1625 1705)" fill="#edbd1b"/>
      <circle id="Ellipse_34-7" data-name="Ellipse 34" cx="6" cy="6" r="6" transform="translate(1651 1678)" fill="#edbd1b"/>
      <circle id="Ellipse_36-7" data-name="Ellipse 36" cx="6" cy="6" r="6" transform="translate(1651 1705)" fill="#edbd1b"/>
    </g>
    <g id="Group_1455-8" data-name="Group 1455" transform="translate(-1572 -1501)">
      <circle id="Ellipse_33-8" data-name="Ellipse 33" cx="6" cy="6" r="6" transform="translate(1625 1678)" fill="#edbd1b"/>
      <circle id="Ellipse_35-8" data-name="Ellipse 35" cx="6" cy="6" r="6" transform="translate(1625 1705)" fill="#edbd1b"/>
      <circle id="Ellipse_34-8" data-name="Ellipse 34" cx="6" cy="6" r="6" transform="translate(1651 1678)" fill="#edbd1b"/>
      <circle id="Ellipse_36-8" data-name="Ellipse 36" cx="6" cy="6" r="6" transform="translate(1651 1705)" fill="#edbd1b"/>
    </g>
    <g id="Group_1455-9" data-name="Group 1455" transform="translate(-1625 -1442)">
      <circle id="Ellipse_33-9" data-name="Ellipse 33" cx="6" cy="6" r="6" transform="translate(1625 1678)" fill="#edbd1b"/>
      <circle id="Ellipse_35-9" data-name="Ellipse 35" cx="6" cy="6" r="6" transform="translate(1625 1705)" fill="#edbd1b"/>
      <circle id="Ellipse_34-9" data-name="Ellipse 34" cx="6" cy="6" r="6" transform="translate(1651 1678)" fill="#edbd1b"/>
      <circle id="Ellipse_36-9" data-name="Ellipse 36" cx="6" cy="6" r="6" transform="translate(1651 1705)" fill="#edbd1b"/>
    </g>
    <g id="Group_1455-10" data-name="Group 1455" transform="translate(-1572 -1442)">
      <circle id="Ellipse_33-10" data-name="Ellipse 33" cx="6" cy="6" r="6" transform="translate(1625 1678)" fill="#edbd1b"/>
      <circle id="Ellipse_35-10" data-name="Ellipse 35" cx="6" cy="6" r="6" transform="translate(1625 1705)" fill="#edbd1b"/>
      <circle id="Ellipse_34-10" data-name="Ellipse 34" cx="6" cy="6" r="6" transform="translate(1651 1678)" fill="#edbd1b"/>
      <circle id="Ellipse_36-10" data-name="Ellipse 36" cx="6" cy="6" r="6" transform="translate(1651 1705)" fill="#edbd1b"/>
    </g>
    <g id="Group_1455-11" data-name="Group 1455" transform="translate(-1625 -1383)">
      <circle id="Ellipse_33-11" data-name="Ellipse 33" cx="6" cy="6" r="6" transform="translate(1625 1678)" fill="#edbd1b"/>
      <circle id="Ellipse_35-11" data-name="Ellipse 35" cx="6" cy="6" r="6" transform="translate(1625 1705)" fill="#edbd1b"/>
      <circle id="Ellipse_34-11" data-name="Ellipse 34" cx="6" cy="6" r="6" transform="translate(1651 1678)" fill="#edbd1b"/>
      <circle id="Ellipse_36-11" data-name="Ellipse 36" cx="6" cy="6" r="6" transform="translate(1651 1705)" fill="#edbd1b"/>
    </g>
    <g id="Group_1455-12" data-name="Group 1455" transform="translate(-1572 -1383)">
      <circle id="Ellipse_33-12" data-name="Ellipse 33" cx="6" cy="6" r="6" transform="translate(1625 1678)" fill="#edbd1b"/>
      <circle id="Ellipse_35-12" data-name="Ellipse 35" cx="6" cy="6" r="6" transform="translate(1625 1705)" fill="#edbd1b"/>
      <circle id="Ellipse_34-12" data-name="Ellipse 34" cx="6" cy="6" r="6" transform="translate(1651 1678)" fill="#edbd1b"/>
      <circle id="Ellipse_36-12" data-name="Ellipse 36" cx="6" cy="6" r="6" transform="translate(1651 1705)" fill="#edbd1b"/>
    </g>
    <g id="Group_1455-13" data-name="Group 1455" transform="translate(-1625 -1324)">
      <circle id="Ellipse_33-13" data-name="Ellipse 33" cx="6" cy="6" r="6" transform="translate(1625 1678)" fill="#edbd1b"/>
      <circle id="Ellipse_35-13" data-name="Ellipse 35" cx="6" cy="6" r="6" transform="translate(1625 1705)" fill="#edbd1b"/>
      <circle id="Ellipse_34-13" data-name="Ellipse 34" cx="6" cy="6" r="6" transform="translate(1651 1678)" fill="#edbd1b"/>
      <circle id="Ellipse_36-13" data-name="Ellipse 36" cx="6" cy="6" r="6" transform="translate(1651 1705)" fill="#edbd1b"/>
    </g>
    <g id="Group_1455-14" data-name="Group 1455" transform="translate(-1572 -1324)">
      <circle id="Ellipse_33-14" data-name="Ellipse 33" cx="6" cy="6" r="6" transform="translate(1625 1678)" fill="#edbd1b"/>
      <circle id="Ellipse_35-14" data-name="Ellipse 35" cx="6" cy="6" r="6" transform="translate(1625 1705)" fill="#edbd1b"/>
      <circle id="Ellipse_34-14" data-name="Ellipse 34" cx="6" cy="6" r="6" transform="translate(1651 1678)" fill="#edbd1b"/>
      <circle id="Ellipse_36-14" data-name="Ellipse 36" cx="6" cy="6" r="6" transform="translate(1651 1705)" fill="#edbd1b"/>
    </g>
  </g>
</svg>
