<svg xmlns="http://www.w3.org/2000/svg" xmlns:xlink="http://www.w3.org/1999/xlink" width="66" height="185" viewBox="0 0 66 185">
  <defs>
    <clipPath id="clip-path">
      <rect width="66" height="185" fill="none"/>
    </clipPath>
  </defs>
  <g id="Repeat_Grid_39" data-name="Repeat Grid 39" clip-path="url(#clip-path)">
    <g id="Group_1455" data-name="Group 1455" transform="translate(-1625 -1678)">
      <circle id="Ellipse_33" data-name="Ellipse 33" cx="6" cy="6" r="6" transform="translate(1625 1678)" fill="#fff"/>
      <circle id="Ellipse_35" data-name="Ellipse 35" cx="6" cy="6" r="6" transform="translate(1625 1705)" fill="#fff"/>
      <circle id="Ellipse_34" data-name="Ellipse 34" cx="6" cy="6" r="6" transform="translate(1651 1678)" fill="#fff"/>
      <circle id="Ellipse_36" data-name="Ellipse 36" cx="6" cy="6" r="6" transform="translate(1651 1705)" fill="#fff"/>
    </g>
    <g id="Group_1455-2" data-name="Group 1455" transform="translate(-1572 -1678)">
      <circle id="Ellipse_33-2" data-name="Ellipse 33" cx="6" cy="6" r="6" transform="translate(1625 1678)" fill="#fff"/>
      <circle id="Ellipse_35-2" data-name="Ellipse 35" cx="6" cy="6" r="6" transform="translate(1625 1705)" fill="#fff"/>
      <circle id="Ellipse_34-2" data-name="Ellipse 34" cx="6" cy="6" r="6" transform="translate(1651 1678)" fill="#fff"/>
      <circle id="Ellipse_36-2" data-name="Ellipse 36" cx="6" cy="6" r="6" transform="translate(1651 1705)" fill="#fff"/>
    </g>
    <g id="Group_1455-3" data-name="Group 1455" transform="translate(-1625 -1619)">
      <circle id="Ellipse_33-3" data-name="Ellipse 33" cx="6" cy="6" r="6" transform="translate(1625 1678)" fill="#fff"/>
      <circle id="Ellipse_35-3" data-name="Ellipse 35" cx="6" cy="6" r="6" transform="translate(1625 1705)" fill="#fff"/>
      <circle id="Ellipse_34-3" data-name="Ellipse 34" cx="6" cy="6" r="6" transform="translate(1651 1678)" fill="#fff"/>
      <circle id="Ellipse_36-3" data-name="Ellipse 36" cx="6" cy="6" r="6" transform="translate(1651 1705)" fill="#fff"/>
    </g>
    <g id="Group_1455-4" data-name="Group 1455" transform="translate(-1572 -1619)">
      <circle id="Ellipse_33-4" data-name="Ellipse 33" cx="6" cy="6" r="6" transform="translate(1625 1678)" fill="#fff"/>
      <circle id="Ellipse_35-4" data-name="Ellipse 35" cx="6" cy="6" r="6" transform="translate(1625 1705)" fill="#fff"/>
      <circle id="Ellipse_34-4" data-name="Ellipse 34" cx="6" cy="6" r="6" transform="translate(1651 1678)" fill="#fff"/>
      <circle id="Ellipse_36-4" data-name="Ellipse 36" cx="6" cy="6" r="6" transform="translate(1651 1705)" fill="#fff"/>
    </g>
    <g id="Group_1455-5" data-name="Group 1455" transform="translate(-1625 -1560)">
      <circle id="Ellipse_33-5" data-name="Ellipse 33" cx="6" cy="6" r="6" transform="translate(1625 1678)" fill="#fff"/>
      <circle id="Ellipse_35-5" data-name="Ellipse 35" cx="6" cy="6" r="6" transform="translate(1625 1705)" fill="#fff"/>
      <circle id="Ellipse_34-5" data-name="Ellipse 34" cx="6" cy="6" r="6" transform="translate(1651 1678)" fill="#fff"/>
      <circle id="Ellipse_36-5" data-name="Ellipse 36" cx="6" cy="6" r="6" transform="translate(1651 1705)" fill="#fff"/>
    </g>
    <g id="Group_1455-6" data-name="Group 1455" transform="translate(-1572 -1560)">
      <circle id="Ellipse_33-6" data-name="Ellipse 33" cx="6" cy="6" r="6" transform="translate(1625 1678)" fill="#fff"/>
      <circle id="Ellipse_35-6" data-name="Ellipse 35" cx="6" cy="6" r="6" transform="translate(1625 1705)" fill="#fff"/>
      <circle id="Ellipse_34-6" data-name="Ellipse 34" cx="6" cy="6" r="6" transform="translate(1651 1678)" fill="#fff"/>
      <circle id="Ellipse_36-6" data-name="Ellipse 36" cx="6" cy="6" r="6" transform="translate(1651 1705)" fill="#fff"/>
    </g>
    <g id="Group_1455-7" data-name="Group 1455" transform="translate(-1625 -1501)">
      <circle id="Ellipse_33-7" data-name="Ellipse 33" cx="6" cy="6" r="6" transform="translate(1625 1678)" fill="#fff"/>
      <circle id="Ellipse_35-7" data-name="Ellipse 35" cx="6" cy="6" r="6" transform="translate(1625 1705)" fill="#fff"/>
      <circle id="Ellipse_34-7" data-name="Ellipse 34" cx="6" cy="6" r="6" transform="translate(1651 1678)" fill="#fff"/>
      <circle id="Ellipse_36-7" data-name="Ellipse 36" cx="6" cy="6" r="6" transform="translate(1651 1705)" fill="#fff"/>
    </g>
    <g id="Group_1455-8" data-name="Group 1455" transform="translate(-1572 -1501)">
      <circle id="Ellipse_33-8" data-name="Ellipse 33" cx="6" cy="6" r="6" transform="translate(1625 1678)" fill="#fff"/>
      <circle id="Ellipse_35-8" data-name="Ellipse 35" cx="6" cy="6" r="6" transform="translate(1625 1705)" fill="#fff"/>
      <circle id="Ellipse_34-8" data-name="Ellipse 34" cx="6" cy="6" r="6" transform="translate(1651 1678)" fill="#fff"/>
      <circle id="Ellipse_36-8" data-name="Ellipse 36" cx="6" cy="6" r="6" transform="translate(1651 1705)" fill="#fff"/>
    </g>
  </g>
</svg>
